ExploreSansVariable-ExtraLight.250920-1905.ufo
<glyph name="exclam" format="2">
  <advance width="234"/>
  <unicode hex="0021"/>
  <outline>
    <contour>
      <point x="95" y="716" type="line"/>
      <point x="141" y="716" type="line"/>
      <point x="136" y="185" type="line"/>
      <point x="96" y="185" type="line"/>
    </contour>
    <contour>
      <point x="116" y="72" type="curve" smooth="yes"/>
      <point x="148" y="72"/>
      <point x="156" y="47"/>
      <point x="156" y="31" type="curve" smooth="yes"/>
      <point x="156" y="12"/>
      <point x="147" y="-7"/>
      <point x="116" y="-7" type="curve" smooth="yes"/>
      <point x="86" y="-7"/>
      <point x="77" y="12"/>
      <point x="77" y="31" type="curve" smooth="yes"/>
      <point x="77" y="47"/>
      <point x="84" y="72"/>
    </contour>
  </outline>
</glyph>
<glyph name="percent" format="2">
  <advance width="756"/>
  <unicode hex="0025"/>
  <outline>
    <contour>
      <point x="552" y="708" type="line"/>
      <point x="600" y="708" type="line"/>
      <point x="183" y="0" type="line"/>
      <point x="134" y="0" type="line"/>
    </contour>
    <contour>
      <point x="514" y="299" type="curve" smooth="yes"/>
      <point x="594" y="299"/>
      <point x="645" y="238"/>
      <point x="645" y="146" type="curve" smooth="yes"/>
      <point x="645" y="53"/>
      <point x="594" y="-8"/>
      <point x="514" y="-8" type="curve" smooth="yes"/>
      <point x="434" y="-8"/>
      <point x="383" y="53"/>
      <point x="383" y="146" type="curve" smooth="yes"/>
      <point x="383" y="238"/>
      <point x="434" y="299"/>
    </contour>
    <contour>
      <point x="512" y="253" type="curve" smooth="yes"/>
      <point x="464" y="253"/>
      <point x="439" y="216"/>
      <point x="439" y="144" type="curve" smooth="yes"/>
      <point x="439" y="75"/>
      <point x="464" y="41"/>
      <point x="513" y="41" type="curve" smooth="yes"/>
      <point x="563" y="41"/>
      <point x="588" y="75"/>
      <point x="588" y="144" type="curve" smooth="yes"/>
      <point x="588" y="158"/>
      <point x="591" y="253"/>
    </contour>
    <contour>
      <point x="219" y="667" type="curve" smooth="yes"/>
      <point x="172" y="667"/>
      <point x="146" y="631"/>
      <point x="146" y="560" type="curve" smooth="yes"/>
      <point x="146" y="492"/>
      <point x="171" y="457"/>
      <point x="220" y="457" type="curve" smooth="yes"/>
      <point x="270" y="457"/>
      <point x="295" y="493"/>
      <point x="295" y="561" type="curve" smooth="yes"/>
      <point x="295" y="580"/>
      <point x="294" y="667"/>
    </contour>
    <contour>
      <point x="220" y="716" type="curve" smooth="yes"/>
      <point x="300" y="716"/>
      <point x="352" y="654"/>
      <point x="352" y="561" type="curve" smooth="yes"/>
      <point x="352" y="470"/>
      <point x="303" y="407"/>
      <point x="221" y="407" type="curve" smooth="yes"/>
      <point x="139" y="407"/>
      <point x="89" y="471"/>
      <point x="89" y="561" type="curve" smooth="yes"/>
      <point x="89" y="654"/>
      <point x="141" y="716"/>
    </contour>
  </outline>
</glyph>
<glyph name="parenleft" format="2">
  <advance width="238"/>
  <unicode hex="0028"/>
  <outline>
    <contour>
      <point x="197" y="800" type="curve"/>
      <point x="231" y="800" type="line"/>
      <point x="216" y="796"/>
      <point x="37" y="674"/>
      <point x="37" y="366" type="curve" smooth="yes"/>
      <point x="37" y="280"/>
      <point x="48" y="107"/>
      <point x="229" y="-64" type="curve"/>
      <point x="184" y="-64" type="line"/>
      <point x="76" y="24"/>
      <point x="27" y="210"/>
      <point x="27" y="366" type="curve" smooth="yes"/>
      <point x="27" y="572"/>
      <point x="76" y="702"/>
    </contour>
  </outline>
</glyph>
<glyph name="hyphen" format="2">
  <advance width="391"/>
  <unicode hex="002D"/>
  <outline>
    <contour>
      <point x="82" y="293" type="line"/>
      <point x="309" y="293" type="line"/>
      <point x="309" y="239" type="line"/>
      <point x="82" y="239" type="line"/>
    </contour>
  </outline>
</glyph>
<glyph name="period" format="2">
  <advance width="211"/>
  <unicode hex="002E"/>
  <outline>
    <contour>
      <point x="101" y="71" type="curve" smooth="yes"/>
      <point x="131" y="71"/>
      <point x="142" y="44"/>
      <point x="142" y="32" type="curve" smooth="yes"/>
      <point x="142" y="20"/>
      <point x="131" y="-8"/>
      <point x="101" y="-8" type="curve" smooth="yes"/>
      <point x="69" y="-8"/>
      <point x="63" y="23"/>
      <point x="63" y="32" type="curve" smooth="yes"/>
      <point x="63" y="41"/>
      <point x="69" y="71"/>
    </contour>
  </outline>
</glyph>
<glyph name="five" format="2">
  <advance width="523"/>
  <unicode hex="0035"/>
  <outline>
    <contour>
      <point x="113" y="708" type="line"/>
      <point x="422" y="708" type="line"/>
      <point x="422" y="690" type="line"/>
      <point x="128" y="690" type="line"/>
      <point x="119" y="360" type="line"/>
      <point x="160" y="421"/>
      <point x="208" y="443"/>
      <point x="267" y="443" type="curve" smooth="yes"/>
      <point x="386" y="443"/>
      <point x="452" y="348"/>
      <point x="452" y="216" type="curve" smooth="yes"/>
      <point x="452" y="77"/>
      <point x="355" y="-8"/>
      <point x="237" y="-8" type="curve" smooth="yes"/>
      <point x="174" y="-8"/>
      <point x="132" y="5"/>
      <point x="56" y="69" type="curve"/>
      <point x="81" y="77" type="line"/>
      <point x="166" y="11"/>
      <point x="212" y="1"/>
      <point x="248" y="1" type="curve" smooth="yes"/>
      <point x="376" y="1"/>
      <point x="439" y="75"/>
      <point x="439" y="211" type="curve" smooth="yes"/>
      <point x="439" y="354"/>
      <point x="385" y="420"/>
      <point x="262" y="420" type="curve" smooth="yes"/>
      <point x="215" y="420"/>
      <point x="166" y="405"/>
      <point x="119" y="369" type="curve"/>
      <point x="101" y="369" type="line"/>
    </contour>
  </outline>
</glyph>
<glyph name="semicolon" format="2">
  <advance width="111"/>
  <unicode hex="003B"/>
  <outline>
    <component base="comma" xOffset="29"/>
    <contour>
      <point x="109" y="1144" type="curve" smooth="yes"/>
      <point x="168" y="1113"/>
      <point x="185" y="1045"/>
      <point x="155" y="987" type="curve" smooth="yes"/>
      <point x="124" y="930"/>
      <point x="56" y="912"/>
      <point x="-3" y="942" type="curve"/>
      <point x="-60" y="973"/>
      <point x="-77" y="1041"/>
      <point x="-47" y="1099" type="curve" smooth="yes"/>
      <point x="-16" y="1156"/>
      <point x="51" y="1174"/>
    </contour>
  </outline>
</glyph>
<glyph name="less" format="2">
  <advance width="518"/>
  <unicode hex="003C"/>
  <outline>
    <contour>
      <point x="51" y="329" type="line"/>
      <point x="467" y="501" type="line"/>
      <point x="487" y="467" type="line"/>
      <point x="34" y="280" type="line"/>
      <point x="487" y="90" type="line"/>
      <point x="467" y="56" type="line"/>
      <point x="51" y="228" type="line"/>
    </contour>
  </outline>
</glyph>
<glyph name="F" format="2">
  <advance width="564"/>
  <unicode hex="0046"/>
  <outline>
    <contour>
      <point x="84" y="708" type="line"/>
      <point x="500" y="708" type="line"/>
      <point x="500" y="680" type="line"/>
      <point x="116" y="680" type="line"/>
      <point x="116" y="390" type="line"/>
      <point x="422" y="390" type="line"/>
      <point x="422" y="362" type="line"/>
      <point x="116" y="362" type="line"/>
      <point x="116" y="0" type="line"/>
      <point x="84" y="0" type="line"/>
    </contour>
  </outline>
</glyph>
<glyph name="J" format="2">
  <advance width="379"/>
  <unicode hex="004A"/>
  <outline>
    <contour>
      <point x="246" y="708" type="line"/>
      <point x="278" y="708" type="line"/>
      <point x="278" y="169" type="line" smooth="yes"/>
      <point x="278" y="34"/>
      <point x="221" y="-8"/>
      <point x="108" y="-8" type="curve" smooth="yes"/>
      <point x="94" y="-8"/>
      <point x="72" y="-6"/>
      <point x="40" y="0" type="curve"/>
      <point x="44" y="27" type="line"/>
      <point x="108" y="23" type="line" smooth="yes"/>
      <point x="197" y="19"/>
      <point x="246" y="57"/>
      <point x="246" y="169" type="curve" smooth="yes"/>
    </contour>
  </outline>
</glyph>
<glyph name="K" format="2">
  <advance width="530"/>
  <unicode hex="004B"/>
  <outline>
    <contour>
      <point x="101" y="708" type="line"/>
      <point x="133" y="708" type="line"/>
      <point x="133" y="373" type="line"/>
      <point x="152" y="373" type="line"/>
      <point x="460" y="708" type="line"/>
      <point x="498" y="708" type="line"/>
      <point x="182" y="358" type="line"/>
      <point x="498" y="0" type="line"/>
      <point x="461" y="0" type="line"/>
      <point x="152" y="344" type="line"/>
      <point x="133" y="344" type="line"/>
      <point x="133" y="0" type="line"/>
      <point x="101" y="0" type="line"/>
    </contour>
  </outline>
</glyph>
<glyph name="Q" format="2">
  <advance width="640"/>
  <unicode hex="0051"/>
  <outline>
    <contour>
      <point x="325" y="688" type="curve" smooth="yes"/>
      <point x="179" y="688"/>
      <point x="100" y="575"/>
      <point x="100" y="355" type="curve" smooth="yes"/>
      <point x="100" y="126"/>
      <point x="179" y="17"/>
      <point x="325" y="17" type="curve" smooth="yes"/>
      <point x="472" y="17"/>
      <point x="540" y="127"/>
      <point x="540" y="355" type="curve" smooth="yes"/>
      <point x="540" y="574"/>
      <point x="472" y="688"/>
    </contour>
    <contour>
      <point x="325" y="716" type="curve" smooth="yes"/>
      <point x="483" y="716"/>
      <point x="572" y="598"/>
      <point x="572" y="355" type="curve" smooth="yes"/>
      <point x="572" y="119"/>
      <point x="503" y="0"/>
      <point x="339" y="-11" type="curve"/>
      <point x="345" y="-128"/>
      <point x="404" y="-153"/>
      <point x="487" y="-153" type="curve" smooth="yes"/>
      <point x="548" y="-153" type="line"/>
      <point x="550" y="-170" type="line"/>
      <point x="536" y="-176"/>
      <point x="500" y="-184"/>
      <point x="472" y="-184" type="curve" smooth="yes"/>
      <point x="366" y="-184"/>
      <point x="315" y="-128"/>
      <point x="307" y="-11" type="curve"/>
      <point x="143" y="0"/>
      <point x="68" y="110"/>
      <point x="68" y="355" type="curve" smooth="yes"/>
      <point x="68" y="598"/>
      <point x="161" y="716"/>
    </contour>
  </outline>
</glyph>
<glyph name="i" format="2">
  <advance width="286"/>
  <unicode hex="0069"/>
  <outline>
    <component base="dotlessi" xOffset="-4"/>
    <contour>
      <point x="145" y="731" type="curve" smooth="yes"/>
      <point x="167" y="731"/>
      <point x="183" y="714"/>
      <point x="183" y="692" type="curve" smooth="yes"/>
      <point x="183" y="670"/>
      <point x="167" y="654"/>
      <point x="145" y="654" type="curve" smooth="yes"/>
      <point x="123" y="654"/>
      <point x="106" y="670"/>
      <point x="106" y="692" type="curve" smooth="yes"/>
      <point x="106" y="714"/>
      <point x="123" y="731"/>
    </contour>
  </outline>
</glyph>
<glyph name="m" format="2">
  <advance width="820"/>
  <unicode hex="006D"/>
  <outline>
    <contour>
      <point x="100" y="520" type="line"/>
      <point x="128" y="520" type="line"/>
      <point x="132" y="446" type="line"/>
      <point x="161" y="495"/>
      <point x="229" y="528"/>
      <point x="280" y="528" type="curve" smooth="yes"/>
      <point x="349" y="528"/>
      <point x="394" y="500"/>
      <point x="412" y="434" type="curve"/>
      <point x="446" y="491"/>
      <point x="511" y="528"/>
      <point x="579" y="528" type="curve" smooth="yes"/>
      <point x="658" y="528"/>
      <point x="720" y="494"/>
      <point x="720" y="382" type="curve" smooth="yes"/>
      <point x="720" y="0" type="line"/>
      <point x="688" y="0" type="line"/>
      <point x="688" y="381" type="line" smooth="yes"/>
      <point x="688" y="469"/>
      <point x="646" y="500"/>
      <point x="577" y="500" type="curve" smooth="yes"/>
      <point x="494" y="500"/>
      <point x="442" y="440"/>
      <point x="417" y="392" type="curve"/>
      <point x="417" y="0" type="line"/>
      <point x="385" y="0" type="line"/>
      <point x="385" y="392" type="line" smooth="yes"/>
      <point x="385" y="471"/>
      <point x="344" y="500"/>
      <point x="282" y="500" type="curve" smooth="yes"/>
      <point x="231" y="500"/>
      <point x="174" y="474"/>
      <point x="132" y="416" type="curve"/>
      <point x="132" y="0" type="line"/>
      <point x="100" y="0" type="line"/>
    </contour>
  </outline>
</glyph>
<glyph name="n" format="2">
  <advance width="562"/>
  <unicode hex="006E"/>
  <anchor x="274" y="687" name="AccentCenter"/>
  <outline>
    <contour>
      <point x="101" y="520" type="line"/>
      <point x="121" y="520" type="line"/>
      <point x="133" y="434" type="line"/>
      <point x="163" y="494"/>
      <point x="235" y="528"/>
      <point x="291" y="528" type="curve" smooth="yes"/>
      <point x="393" y="528"/>
      <point x="462" y="481"/>
      <point x="462" y="352" type="curve" smooth="yes"/>
      <point x="462" y="0" type="line"/>
      <point x="430" y="0" type="line"/>
      <point x="430" y="352" type="line" smooth="yes"/>
      <point x="430" y="454"/>
      <point x="375" y="500"/>
      <point x="283" y="500" type="curve" smooth="yes"/>
      <point x="212" y="500"/>
      <point x="157" y="441"/>
      <point x="133" y="405" type="curve"/>
      <point x="133" y="0" type="line"/>
      <point x="101" y="0" type="line"/>
    </contour>
  </outline>
</glyph>
<glyph name="s" format="2">
  <advance width="492"/>
  <unicode hex="0073"/>
  <outline>
    <contour>
      <point x="256" y="528" type="curve" smooth="yes"/>
      <point x="321" y="528"/>
      <point x="362" y="510"/>
      <point x="423" y="467" type="curve"/>
      <point x="404" y="445" type="line"/>
      <point x="352" y="486"/>
      <point x="305" y="500"/>
      <point x="256" y="500" type="curve" smooth="yes"/>
      <point x="160" y="500"/>
      <point x="108" y="459"/>
      <point x="108" y="393" type="curve" smooth="yes"/>
      <point x="108" y="338"/>
      <point x="142" y="305"/>
      <point x="206" y="290" type="curve"/>
      <point x="303" y="270" type="line" smooth="yes"/>
      <point x="383" y="254"/>
      <point x="438" y="216"/>
      <point x="438" y="136" type="curve" smooth="yes"/>
      <point x="438" y="31"/>
      <point x="346" y="-8"/>
      <point x="243" y="-8" type="curve" smooth="yes"/>
      <point x="161" y="-8"/>
      <point x="109" y="16"/>
      <point x="56" y="63" type="curve"/>
      <point x="74" y="86" type="line"/>
      <point x="119" y="47"/>
      <point x="175" y="20"/>
      <point x="241" y="20" type="curve" smooth="yes"/>
      <point x="331" y="20"/>
      <point x="406" y="47"/>
      <point x="406" y="136" type="curve" smooth="yes"/>
      <point x="406" y="187"/>
      <point x="378" y="225"/>
      <point x="294" y="242" type="curve" smooth="yes"/>
      <point x="197" y="262" type="line" smooth="yes"/>
      <point x="152" y="271"/>
      <point x="78" y="298"/>
      <point x="78" y="392" type="curve" smooth="yes"/>
      <point x="78" y="465"/>
      <point x="129" y="528"/>
    </contour>
  </outline>
</glyph>
<glyph name="u" format="2">
  <advance width="559"/>
  <unicode hex="0075"/>
  <anchor x="276" y="687" name="AccentCenter"/>
  <outline>
    <contour>
      <point x="100" y="520" type="line"/>
      <point x="132" y="520" type="line"/>
      <point x="132" y="164" type="line" smooth="yes"/>
      <point x="132" y="70"/>
      <point x="178" y="20"/>
      <point x="249" y="20" type="curve" smooth="yes"/>
      <point x="318" y="20"/>
      <point x="377" y="64"/>
      <point x="427" y="124" type="curve"/>
      <point x="427" y="520" type="line"/>
      <point x="459" y="520" type="line"/>
      <point x="459" y="0" type="line"/>
      <point x="433" y="0" type="line"/>
      <point x="428" y="94" type="line"/>
      <point x="400" y="56"/>
      <point x="335" y="-8"/>
      <point x="248" y="-8" type="curve" smooth="yes"/>
      <point x="142" y="-8"/>
      <point x="100" y="47"/>
      <point x="100" y="162" type="curve" smooth="yes"/>
    </contour>
  </outline>
</glyph>
<glyph name="x" format="2">
  <advance width="514"/>
  <unicode hex="0078"/>
  <outline>
    <contour>
      <point x="43" y="520" type="line"/>
      <point x="80" y="520" type="line"/>
      <point x="256" y="288" type="line"/>
      <point x="431" y="520" type="line"/>
      <point x="470" y="520" type="line"/>
      <point x="263" y="260" type="line"/>
      <point x="470" y="0" type="line"/>
      <point x="431" y="0" type="line"/>
      <point x="255" y="235" type="line"/>
      <point x="80" y="0" type="line"/>
      <point x="43" y="0" type="line"/>
      <point x="253" y="260" type="line"/>
    </contour>
  </outline>
</glyph>
<glyph name="asciitilde" format="2">
  <advance width="682"/>
  <unicode hex="007E"/>
  <outline>
    <contour>
      <point x="895" y="390" type="line"/>
      <point x="848" y="295"/>
      <point x="744" y="128"/>
      <point x="540" y="128" type="curve" smooth="yes"/>
      <point x="358" y="128"/>
      <point x="264" y="331"/>
      <point x="116" y="331" type="curve" smooth="yes"/>
      <point x="-28" y="331"/>
      <point x="-97" y="154"/>
      <point x="-109" y="126" type="curve"/>
      <point x="-233" y="218" type="line"/>
      <point x="-209" y="290"/>
      <point x="-90" y="483"/>
      <point x="140" y="483" type="curve" smooth="yes"/>
      <point x="305" y="483"/>
      <point x="416" y="281"/>
      <point x="560" y="281" type="curve" smooth="yes"/>
      <point x="658" y="281"/>
      <point x="723" y="387"/>
      <point x="762" y="481" type="curve"/>
    </contour>
  </outline>
</glyph>
<glyph name="currency" format="2">
  <advance width="614"/>
  <unicode hex="00A4"/>
  <outline>
    <contour>
      <point x="475" y="148" type="line"/>
      <point x="567" y="56" type="line"/>
      <point x="536" y="25" type="line"/>
      <point x="444" y="116" type="line"/>
    </contour>
    <contour>
      <point x="170" y="116" type="line"/>
      <point x="78" y="25" type="line"/>
      <point x="47" y="56" type="line"/>
      <point x="139" y="147" type="line"/>
    </contour>
    <contour>
      <point x="140" y="374" type="line"/>
      <point x="48" y="466" type="line"/>
      <point x="78" y="496" type="line"/>
      <point x="170" y="405" type="line"/>
    </contour>
    <contour>
      <point x="443" y="404" type="line"/>
      <point x="536" y="496" type="line"/>
      <point x="567" y="465" type="line"/>
      <point x="474" y="373" type="line"/>
    </contour>
    <contour>
      <point x="307" y="462" type="curve" smooth="yes"/>
      <point x="189" y="462"/>
      <point x="111" y="371"/>
      <point x="111" y="259" type="curve" smooth="yes"/>
      <point x="111" y="147"/>
      <point x="188" y="57"/>
      <point x="307" y="57" type="curve" smooth="yes"/>
      <point x="426" y="57"/>
      <point x="503" y="147"/>
      <point x="503" y="259" type="curve" smooth="yes"/>
      <point x="503" y="371"/>
      <point x="426" y="462"/>
    </contour>
    <contour>
      <point x="307" y="32" type="curve" smooth="yes"/>
      <point x="184" y="32"/>
      <point x="85" y="133"/>
      <point x="85" y="260" type="curve" smooth="yes"/>
      <point x="85" y="387"/>
      <point x="184" y="487"/>
      <point x="307" y="487" type="curve" smooth="yes"/>
      <point x="431" y="487"/>
      <point x="530" y="387"/>
      <point x="530" y="260" type="curve" smooth="yes"/>
      <point x="530" y="133"/>
      <point x="431" y="32"/>
    </contour>
  </outline>
</glyph>
<glyph name="mu" format="2">
  <advance width="535"/>
  <unicode hex="00B5"/>
  <outline>
    <contour>
      <point x="104" y="518" type="line"/>
      <point x="114" y="518" type="line"/>
      <point x="114" y="110" type="line"/>
      <point x="125" y="88"/>
      <point x="162" y="16"/>
      <point x="278" y="16" type="curve" smooth="yes"/>
      <point x="352" y="16"/>
      <point x="435" y="65"/>
      <point x="435" y="226" type="curve" smooth="yes"/>
      <point x="435" y="518" type="line"/>
      <point x="452" y="518" type="line"/>
      <point x="452" y="66" type="line" smooth="yes"/>
      <point x="452" y="34"/>
      <point x="462" y="26"/>
      <point x="480" y="26" type="curve" smooth="yes"/>
      <point x="502" y="26" type="line"/>
      <point x="502" y="0" type="line"/>
      <point x="504" y="-1"/>
      <point x="493" y="-8"/>
      <point x="478" y="-8" type="curve" smooth="yes"/>
      <point x="436" y="-8"/>
      <point x="431" y="24"/>
      <point x="431" y="79" type="curve"/>
      <point x="402" y="31"/>
      <point x="355" y="-8"/>
      <point x="277" y="-8" type="curve" smooth="yes"/>
      <point x="214" y="-8"/>
      <point x="168" y="0"/>
      <point x="119" y="65" type="curve"/>
      <point x="117" y="53"/>
      <point x="114" y="45"/>
      <point x="114" y="33" type="curve" smooth="yes"/>
      <point x="114" y="-190" type="line"/>
      <point x="104" y="-190" type="line"/>
    </contour>
  </outline>
</glyph>
<glyph name="Thorn" format="2">
  <advance width="519"/>
  <unicode hex="00DE"/>
  <outline>
    <contour>
      <point x="99" y="708" type="line"/>
      <point x="112" y="708" type="line"/>
      <point x="112" y="557" type="line"/>
      <point x="268" y="557" type="line" smooth="yes"/>
      <point x="357" y="557"/>
      <point x="454" y="480"/>
      <point x="454" y="354" type="curve" smooth="yes"/>
      <point x="454" y="236"/>
      <point x="349" y="161"/>
      <point x="262" y="161" type="curve" smooth="yes"/>
      <point x="112" y="161" type="line"/>
      <point x="112" y="0" type="line"/>
      <point x="99" y="0" type="line"/>
    </contour>
    <contour>
      <point x="112" y="538" type="line"/>
      <point x="112" y="182" type="line"/>
      <point x="264" y="182" type="line" smooth="yes"/>
      <point x="374" y="182"/>
      <point x="438" y="251"/>
      <point x="438" y="355" type="curve" smooth="yes"/>
      <point x="438" y="465"/>
      <point x="381" y="538"/>
      <point x="274" y="538" type="curve" smooth="yes"/>
    </contour>
  </outline>
</glyph>
<glyph name="thorn" format="2">
  <advance width="575"/>
  <unicode hex="00FE"/>
  <outline>
    <contour>
      <point x="90" y="708" type="line"/>
      <point x="105" y="708" type="line"/>
      <point x="105" y="411" type="line"/>
      <point x="174" y="489"/>
      <point x="237" y="528"/>
      <point x="297" y="528" type="curve" smooth="yes"/>
      <point x="431" y="528"/>
      <point x="490" y="443"/>
      <point x="490" y="261" type="curve" smooth="yes"/>
      <point x="490" y="94"/>
      <point x="417" y="-8"/>
      <point x="292" y="-8" type="curve"/>
      <point x="309" y="-8"/>
      <point x="178" y="-15"/>
      <point x="105" y="94" type="curve"/>
      <point x="105" y="-193" type="line"/>
      <point x="90" y="-193" type="line"/>
    </contour>
    <contour>
      <point x="286" y="510" type="curve" smooth="yes"/>
      <point x="206" y="510"/>
      <point x="150" y="474"/>
      <point x="105" y="397" type="curve"/>
      <point x="105" y="134" type="line"/>
      <point x="154" y="46"/>
      <point x="205" y="13"/>
      <point x="289" y="13" type="curve" smooth="yes"/>
      <point x="406" y="13"/>
      <point x="478" y="110"/>
      <point x="478" y="265" type="curve" smooth="yes"/>
      <point x="478" y="435"/>
      <point x="419" y="510"/>
    </contour>
  </outline>
</glyph>
